<svg xmlns="http://www.w3.org/2000/svg" height="597pt" viewBox="-19 -18 597 597.33281" width="597pt"><path d="m330.152344 170.011719c0 27.613281-22.386719 50-49.996094 50-27.613281 0-50-22.386719-50-50 0-27.609375 22.386719-49.996094 50-49.996094 27.609375 0 49.996094 22.386719 49.996094 49.996094zm0 0"></path><path d="m243.6875 282.261719c-8.5-3.984375-14.972656-11.320313-17.863281-20.25-1.359375-3.445313-3.273438-6.648438-5.667969-9.480469-3-1.308594-6.210938-2.085938-9.476562-2.300781l-53.109376 92 22.347657 1.355469 16.898437-29.265626 17.320313 10-16.878907 29.246094 12.300782 18.652344 53.386718-92.4375c-4.058593 2.101562-8.53125 3.292969-13.097656 3.488281-2.09375-.011719-4.171875-.355469-6.160156-1.007812zm0 0"></path><path d="m310.554688 263.207031c2.507812-2.910156 4.496093-6.230469 5.878906-9.816406 2.515625-6.554687 6.601562-12.394531 11.898437-16.996094 6.058594-3.671875 12.929688-5.789062 20-6.164062 3.824219-.214844 7.578125-1.097657 11.09375-2.617188.273438-3.75-.066406-7.515625-1.003906-11.152343-1.828125-6.886719-1.9375-14.125-.3125-21.066407 2.714844-6.40625 6.96875-12.035156 12.382813-16.402343 2.472656-2.347657 7.609374-7.230469 7.609374-9 0-1.765626-5.136718-6.609376-7.609374-8.996094-5.390626-4.351563-9.628907-9.957032-12.34375-16.332032-1.625-6.949218-1.511719-14.191406.324218-21.089843.945313-3.65625 1.265625-7.445313.925782-11.210938-3.492188-1.453125-7.214844-2.320312-10.992188-2.546875-7.070312-.378906-13.941406-2.484375-20-6.148437-5.304688-4.609375-9.394531-10.445313-11.914062-17-1.378907-3.625-3.410157-6.964844-5.996094-9.847657-3.558594.917969-6.953125 2.382813-10.0625 4.339844-6.089844 3.917969-13.058594 6.277344-20.277344 6.855469-7.203125-.597656-14.152344-2.964844-20.21875-6.890625-3.101562-1.921875-6.472656-3.382812-10-4.324219h-.210938c-2.507812 2.910157-4.496093 6.226563-5.878906 9.816407-2.515625 6.558593-6.601562 12.394531-11.898437 16.996093-6.058594 3.671875-12.929688 5.785157-20 6.164063-3.824219.214844-7.578125 1.097656-11.09375 2.621094-.273438 3.746093.0625 7.507812 1 11.148437 1.832031 6.886719 1.941406 14.125.3125 21.066406-2.714844 6.40625-6.964844 12.042969-12.378907 16.402344-2.472656 2.347656-7.609374 7.230469-7.609374 8.996094 0 1.773437 5.136718 6.613281 7.609374 9 5.402344 4.351562 9.652344 9.964843 12.371094 16.351562 1.625 6.949219 1.511719 14.191407-.324218 21.089844-.945313 3.65625-1.261719 7.445313-.925782 11.210937 3.496094 1.453126 7.214844 2.316407 10.996094 2.546876 7.074219.375 13.9375 2.484374 20 6.152343 5.300781 4.605469 9.394531 10.4375 11.914062 16.996094 1.375 3.625 3.410157 6.964844 5.992188 9.847656 3.574219-.871093 6.972656-2.335937 10.066406-4.335937 6.085938-3.925782 13.054688-6.28125 20.277344-6.859375 7.199219.597656 14.148438 2.964843 20.21875 6.890625 3.117188 2.011718 6.5625 3.472656 10.179688 4.304687zm-100.398438-93.195312c0-38.652344 31.339844-69.996094 70-69.996094s69.996094 31.34375 69.996094 69.996094c0 38.664062-31.335938 70-69.996094 70-38.640625-.042969-69.953125-31.355469-70-70zm0 0"></path><path d="m537.65625 1.019531c-2.441406-.683593-4.972656-1.019531-7.511719-.9999998-16.566406 0-29.996093 13.4335938-29.996093 29.9999998v29.996094h59.996093v-29.996094c-.007812-7.980469-3.183593-15.628906-8.816406-21.28125-3.808594-3.714843-8.519531-6.375-13.671875-7.71875zm0 0"></path><path d="m.164062 500v10c.035157 27.601562 22.398438 49.964844 50 50h350.988282c-13.453125-13.152344-21.023438-31.179688-21-50v-10zm0 0"></path><path d="m340.152344 252.53125c-2.378906 2.835938-4.277344 6.035156-5.628906 9.480469-2.882813 8.9375-9.351563 16.273437-17.859376 20.25-6.496093 1.726562-13.40625.847656-19.257812-2.453125l53.347656 92.378906 12.296875-18.648438-16.898437-29.25 17.320312-10 16.898438 29.269532 22.347656-1.359375-53.109375-92c-3.261719.230469-6.457031 1.015625-9.457031 2.332031zm0 0"></path><path d="m480.148438 520v-489.980469c.023437-3.109375.335937-6.214843.941406-9.269531.175781-1 .46875-1.878906.707031-2.820312.496094-2.011719 1.109375-3.996094 1.84375-5.929688.398437-1 .828125-2 1.289063-3 .839843-1.789062 1.78125-3.527344 2.832031-5.203125.535156-.867187.996093-1.746094 1.632812-2.578125.285157-.390625.496094-.839844.773438-1.21875h-360.007813c-27.601562.0351562-49.964844 22.398438-49.996094 50v430.003906h309.988282c5.519531 0 10 4.476563 10 10v19.996094c.03125 27.601562 22.394531 49.964844 49.996094 50 16.566406 0 30-13.433594 30-30zm-51.886719-164.050781c-1.648438 3.050781-4.753907 5.035156-8.210938 5.238281l-39.699219 2.398438-21.851562 33.128906c-1.847656 2.808594-4.988281 4.492187-8.347656 4.492187h-.296875c-3.46875-.109375-6.632813-1.996093-8.363281-5l-61.335938-106.199219-61.335938 106.199219c-1.734374 3.003907-4.898437 4.890625-8.363281 5h-.300781c-3.359375 0-6.496094-1.683593-8.347656-4.492187l-21.851563-33.128906-39.695312-2.398438c-3.464844-.203125-6.574219-2.191406-8.222657-5.25-1.640624-3.054688-1.582031-6.746094.164063-9.75l58.546875-101.386719c-2.363281-1.386719-4.417969-3.238281-6.050781-5.4375-4.46875-8.105469-5.390625-17.695312-2.539063-26.5.96875-3.695312 1.304688-7.535156.996094-11.34375-1.933594-3.046875-4.335938-5.769531-7.128906-8.066406-7.683594-5.539063-12.714844-14.035156-13.867188-23.441406 1.144532-9.402344 6.15625-17.90625 13.839844-23.460938 2.785156-2.292969 5.195312-5.011719 7.128906-8.066406.304688-3.804687-.03125-7.644531-.996094-11.339844-2.851562-8.808593-1.933593-18.402343 2.539063-26.507812 6.378906-6.789063 15.285156-10.628907 24.605469-10.621094 3.742187-.238281 7.414062-1.09375 10.878906-2.519531 2.378906-2.832032 4.277344-6.035156 5.628906-9.480469 2.882813-8.9375 9.351563-16.269531 17.863282-20.25 8.996093-1.773437 18.328124.3125 25.714843 5.753906 3.3125 2.113281 6.964844 3.636719 10.792969 4.496094 3.816406-.863281 7.453125-2.386719 10.75-4.496094 7.386719-5.441406 16.71875-7.527343 25.71875-5.753906 8.5 3.984375 14.96875 11.320313 17.859375 20.25 1.351563 3.445313 3.25 6.652344 5.628906 9.492187 3.480469 1.425782 7.167969 2.269532 10.917969 2.507813 9.3125 0 18.210938 3.847656 24.578125 10.640625 4.46875 8.105469 5.390625 17.695312 2.539063 26.496094-.964844 3.699218-1.300782 7.535156-.996094 11.34375 1.933594 3.050781 4.34375 5.777344 7.128906 8.070312 7.691406 5.539063 12.714844 14.039063 13.867188 23.445313-1.140626 9.410156-6.15625 17.910156-13.835938 23.460937-2.789062 2.296875-5.195312 5.019532-7.128906 8.066406-.308594 3.816407.027344 7.648438 1 11.34375 2.847656 8.808594 1.929687 18.402344-2.542969 26.507813-1.621094 2.1875-3.664063 4.035156-5.996094 5.429687l58.503907 101.386719c1.722656 3.007813 1.765624 6.695313.113281 9.742188zm0 0"></path></svg>