<svg xmlns="http://www.w3.org/2000/svg" height="512pt" viewBox="0 -54 512 512" width="512pt"><path d="m86.582031 367.386719c0-20.046875 3.851563-39.535157 11.136719-57.332031-3.332031.628906-6.761719.972656-10.277344.972656-33.191406 0-59.335937-28.804688-60.453125-66.019532-6.105469 1.148438-12.09375 2.964844-17.902343 5.484376-5.515626 2.394531-9.085938 7.835937-9.085938 13.851562v108.070312c0 8.335938 6.757812 15.09375 15.09375 15.09375h71.488281zm0 0"></path><path d="m115.140625 257.640625h-3.246094c-8.828125 2.613281-18.164062 4.023437-27.824219 4.023437-8.351562 0-16.464843-1.050781-24.210937-3.023437 4.734375 13.207031 15.167969 22.195313 27.585937 22.195313 12.613282 0 23.183594-9.4375 27.695313-23.195313zm0 0"></path><path d="m84.070312 231.472656c30.253907 0 55.941407-19.863281 64.742188-47.226562l-63.996094-24.359375-64.179687 28.03125c9.839843 25.449219 34.554687 43.554687 63.433593 43.554687zm0 0"></path><path d="m16.074219 149.679688v7.285156l62.308593-27.214844c3.621094-1.582031 7.71875-1.679688 11.410157-.273438l62.273437 23.703126v-3.5c0-34.785157-28.296875-63.082032-63.078125-63.082032h-9.832031c-34.78125 0-63.082031 28.296875-63.082031 63.082032zm0 0"></path><path d="m84.851562 70.113281c3.863282 0 7.726563-1.476562 10.671876-4.421875l39.921874-39.921875c5.894532-5.894531 5.894532-15.453125 0-21.347656-5.894531-5.894531-15.453124-5.894531-21.351562 0l-29.242188 29.246094-7.925781-7.925781c-5.894531-5.894532-15.453125-5.894532-21.347656 0-5.894531 5.898437-5.894531 15.453124 0 21.351562l10.269531 10.265625 8.328125 8.332031c2.949219 2.945313 6.8125 4.421875 10.675781 4.421875zm0 0"></path><path d="m424.578125 310.519531c-3.835937 0-7.605469-.402343-11.277344-1.152343 7.472657 17.980468 11.425781 37.714843 11.425781 58.019531v20.121093h72.179688c8.335938 0 15.09375-6.757812 15.09375-15.09375v-109.308593c0-6.269531-3.875-11.886719-9.738281-14.113281-5.359375-2.03125-11.589844-3.402344-17.480469-4.257813-.707031 37.007813-26.886719 65.785156-60.203125 65.785156zm0 0"></path><path d="m451.980469 258.667969c-8.808594 2.597656-18.121094 4-27.753907 4-9.40625 0-18.503906-1.332031-27.121093-3.8125 4.832031 12.664062 15.324219 21.472656 27.472656 21.472656 12.351563 0 22.734375-8.777344 27.402344-21.660156zm0 0"></path><path d="m425.238281 161.011719-63.457031 30.355469c10.441406 24.15625 34.496094 41.113281 62.445312 41.113281 30.199219 0 55.851563-19.800781 64.691407-47.09375zm0 0"></path><path d="m356.230469 160.550781 61.835937-29.578125c3.734375-1.785156 8.039063-1.960937 11.910156-.480468l62.246094 23.828124v-3.636718c0-34.78125-28.296875-63.078125-63.082031-63.078125h-9.832031c-34.78125 0-63.078125 28.296875-63.078125 63.078125zm0 0"></path><path d="m368.3125 292.625c-14.242188-16.980469-32.519531-27.886719-52.457031-31.542969.011719.210938.035156.421875.03125.636719-.007813 38.960938-26.464844 69.480469-60.234375 69.480469-16.859375 0-32.445313-7.597657-43.886719-21.394531-10.714844-12.917969-16.617187-29.996094-16.621094-48.085938 0-.171875.019531-.335938.023438-.503906-.027344-.023438-.058594-.046875-.089844-.070313-19.792969 3.726563-37.929687 14.605469-52.085937 31.480469-16.910157 20.152344-26.21875 46.703125-26.21875 74.761719v36.269531h277.757812v-36.269531c.003906-28.058594-9.308594-54.609375-26.21875-74.761719zm0 0"></path><path d="m255.652344 301.007812c12.4375 0 22.882812-9.40625 27.5-23.199218-8.832032 2.617187-18.179688 4.027344-27.851563 4.027344-9.445312 0-18.582031-1.34375-27.234375-3.84375 4.785156 13.566406 15.351563 23.015624 27.585938 23.015624zm0 0"></path><path d="m191.070312 205.925781c9.246094 26.582031 34.539063 45.71875 64.230469 45.71875 30.585938 0 56.511719-20.300781 65.03125-48.132812l-64.429687-23.585938zm0 0"></path><path d="m187.304688 174.90625 62.730468-25.15625c3.457032-1.386719 7.308594-1.445312 10.808594-.164062l62.453125 22.859374v-2.59375c0-34.78125-28.296875-63.078124-63.082031-63.078124h-9.828125c-34.785157 0-63.082031 28.296874-63.082031 63.078124zm0 0"></path><path d="m423.503906 70.113281c3.863282 0 7.726563-1.476562 10.671875-4.421875l39.921875-39.921875c5.894532-5.894531 5.894532-15.453125 0-21.347656-5.894531-5.894531-15.453125-5.894531-21.347656 0l-29.246094 29.246094-7.925781-7.925781c-5.894531-5.894532-15.453125-5.894532-21.347656 0-5.894531 5.894531-5.894531 15.453124 0 21.347656l18.597656 18.597656c2.949219 2.949219 6.8125 4.425781 10.675781 4.425781zm0 0"></path><path d="m254.933594 89.234375c3.863281 0 7.726562-1.472656 10.675781-4.421875l7.4375-7.441406 32.480469-32.480469c5.894531-5.894531 5.894531-15.453125 0-21.347656-5.894532-5.894531-15.453125-5.894531-21.347656 0l-29.246094 29.246093-7.921875-7.925781c-5.894531-5.894531-15.453125-5.894531-21.347657 0-5.898437 5.898438-5.898437 15.453125 0 21.351563l18.597657 18.597656c2.945312 2.949219 6.808593 4.421875 10.671875 4.421875zm0 0"></path></svg>