<svg xmlns="http://www.w3.org/2000/svg" width="704.000000pt" height="689.000000pt" viewBox="0 0 704.000000 689.000000" preserveAspectRatio="xMidYMid meet"><g transform="translate(0.000000,689.000000) scale(0.100000,-0.100000)" fill="#000000" stroke="none"><path d="M3405 5270 c-27 -4 -95 -13 -150 -20 -205 -25 -481 -108 -683 -207 -242 -118 -437 -258 -632 -453 -245 -245 -420 -514 -538 -830 -97 -261 -160 -619 -149 -855 23 -515 178 -959 473 -1355 141 -189 395 -426 594 -552 383 -244 806 -368 1258 -368 301 0 545 44 821 147 311 116 576 288 821 533 288 288 482 615 594 1003 52 179 86 405 86 571 0 92 -2 105 -21 122 -20 18 -48 19 -695 22 l-674 2 0 75 0 74 366 3 366 3 19 24 c16 20 19 40 19 152 l0 129 88 0 87 -1 26 -43 c70 -115 240 -139 341 -48 132 119 91 329 -75 391 -88 33 -210 -9 -262 -91 l-30 -47 -133 0 -134 -1 -29 -29 c-29 -29 -29 -30 -29 -155 l0 -126 -310 0 -310 0 0 115 0 115 204 0 c190 0 205 1 229 21 l27 20 2 287 3 287 162 3 162 2 15 -27 c38 -75 119 -123 206 -123 71 0 126 26 172 80 93 108 65 274 -59 347 -39 23 -60 28 -113 28 -83 0 -140 -30 -194 -103 l-39 -52 -212 0 c-203 0 -213 -1 -231 -21 -17 -19 -19 -44 -24 -308 l-5 -286 -150 0 -150 0 -5 57 c-7 74 -24 91 -98 98 l-57 5 0 150 0 150 92 5 c143 8 137 -5 141 295 l3 245 83 0 83 0 28 -43 c135 -214 467 -75 414 172 -42 196 -308 247 -412 79 l-30 -48 -133 0 c-126 0 -134 -1 -161 -24 l-28 -24 -5 -249 -5 -248 -92 -3 c-136 -4 -133 1 -133 -258 l0 -204 -115 0 -115 0 0 310 0 310 80 0 c89 0 123 11 139 47 6 13 11 80 11 152 l0 129 30 12 c36 15 87 71 106 116 30 71 13 169 -41 240 -30 39 -120 84 -169 84 -44 0 -123 -33 -160 -68 -37 -35 -76 -118 -76 -163 0 -45 23 -112 51 -147 11 -15 41 -39 65 -55 l45 -28 -3 -82 -3 -82 -96 -3 c-145 -4 -133 30 -137 -408 l-3 -364 -74 0 -75 0 -2 676 -3 676 -28 24 c-24 21 -37 24 -100 23 -40 -1 -94 -5 -122 -9z m97 -1250 l3 -1099 23 -23 23 -23 1099 -3 c1097 -2 1100 -2 1100 -23 0 -11 -5 -63 -11 -117 -24 -222 -93 -485 -174 -658 l-37 -79 -20 42 c-11 23 -64 84 -121 140 -154 150 -187 154 -396 53 -103 -49 -135 -60 -176 -60 -74 0 -94 15 -126 93 -47 116 -74 136 -251 182 l-133 35 -243 0 c-283 0 -282 0 -379 -92 -91 -88 -117 -135 -117 -213 0 -73 26 -124 98 -195 35 -33 46 -52 46 -74 0 -17 -26 -109 -57 -206 l-58 -175 -100 -102 -100 -103 -211 0 c-199 0 -213 1 -238 21 -44 34 -26 99 31 114 86 21 131 79 168 215 32 122 32 163 -2 231 -24 46 -42 63 -116 114 -114 77 -155 81 -336 35 -68 -17 -136 -37 -150 -45 -14 -7 -78 -66 -142 -132 -138 -141 -139 -143 -139 -365 l0 -154 -34 -33 -34 -33 -29 20 c-42 30 -222 218 -285 297 -139 174 -279 431 -351 640 -41 119 -92 328 -84 347 7 19 210 98 250 98 27 0 54 -18 142 -91 61 -51 128 -100 150 -110 60 -28 131 -24 196 9 73 37 104 84 127 195 21 99 35 119 94 136 93 28 150 90 170 182 29 139 -88 289 -224 289 -24 0 -72 -8 -108 -19 -65 -18 -66 -18 -180 5 -156 32 -167 47 -135 178 30 117 77 247 97 266 11 10 66 30 123 44 89 22 126 26 250 26 l146 0 62 -58 c80 -74 135 -97 218 -89 124 11 204 97 216 233 7 80 18 97 86 126 61 26 121 94 136 153 16 63 14 172 -5 234 -20 69 -77 125 -150 148 -57 18 -80 15 -191 -18 -72 -22 -113 16 -113 104 -1 90 -65 173 -162 209 -32 11 -58 24 -58 28 0 11 186 95 295 133 177 61 433 112 587 116 l38 1 2 -1100z m673 1075 c33 -32 33 -74 0 -105 -60 -56 -153 1 -124 77 21 56 82 71 124 28z m849 -226 c57 -45 14 -149 -57 -135 -65 13 -89 85 -42 131 30 30 64 32 99 4z m-2513 -144 c117 -39 139 -58 139 -117 0 -93 56 -183 134 -219 54 -25 138 -24 203 1 55 21 86 17 112 -14 19 -23 26 -126 11 -171 -10 -31 -21 -41 -64 -60 -109 -48 -151 -108 -162 -226 -6 -57 -12 -78 -30 -96 -39 -39 -75 -31 -148 36 -99 89 -117 95 -282 99 -135 4 -149 2 -288 -32 -81 -20 -160 -42 -175 -51 -74 -38 -120 -132 -182 -370 -34 -130 -19 -223 47 -288 44 -44 69 -53 217 -83 l137 -28 81 24 c74 21 85 22 108 9 66 -36 70 -127 7 -154 -17 -7 -50 -21 -74 -31 -47 -19 -97 -70 -117 -118 -7 -17 -18 -64 -25 -103 -9 -58 -17 -77 -37 -93 -49 -38 -60 -33 -214 96 -113 96 -139 108 -219 108 -53 -1 -84 -9 -164 -42 -55 -23 -102 -39 -105 -36 -3 3 -8 69 -9 147 -9 348 66 679 224 997 122 245 243 409 443 602 118 114 288 248 315 248 7 0 59 -16 117 -35z m3057 -398 c36 -30 33 -94 -6 -123 -46 -35 -122 5 -122 65 0 40 52 85 89 76 14 -4 32 -12 39 -18z m-1213 -947 l0 -345 -77 -3 -78 -3 0 246 0 246 -25 24 -24 25 -246 0 -245 0 0 80 0 80 348 -2 347 -3 0 -345z m1370 245 c46 -45 23 -118 -40 -131 -74 -14 -118 88 -59 135 35 28 69 26 99 -4z m-1680 -400 l0 -190 -192 -3 -193 -2 0 195 0 195 193 -2 192 -3 0 -190z m349 -925 c120 -32 140 -45 157 -99 22 -69 58 -120 107 -148 44 -26 55 -28 158 -28 l111 0 112 58 c63 31 126 57 143 57 23 0 45 -15 100 -67 83 -81 90 -92 113 -205 l17 -87 -78 -108 c-102 -141 -335 -375 -474 -475 -288 -207 -590 -334 -940 -393 -148 -25 -439 -31 -590 -11 -264 35 -460 92 -687 201 -125 60 -323 179 -323 194 0 4 12 18 26 32 59 55 68 88 74 286 l5 183 91 91 90 90 115 29 c63 16 124 30 137 30 30 0 140 -75 153 -104 8 -17 5 -44 -13 -112 l-23 -89 -64 -32 c-79 -40 -95 -54 -120 -109 -26 -55 -27 -135 -2 -189 23 -51 79 -101 128 -114 22 -6 138 -11 268 -11 203 0 235 3 270 19 23 11 89 69 156 137 l116 119 73 220 c61 187 71 226 66 264 -8 56 -41 113 -100 171 -66 63 -63 87 16 167 l62 63 221 0 c212 0 224 -2 329 -30z"></path><path d="M2992 3059 c-75 -37 -107 -89 -147 -234 -40 -146 -44 -209 -16 -263 27 -54 189 -207 235 -222 61 -20 113 -5 222 61 171 105 194 130 194 221 0 70 -31 116 -128 189 -82 62 -88 69 -99 117 -15 65 -46 107 -98 132 -53 26 -109 25 -163 -1z m108 -151 c5 -13 11 -39 15 -58 7 -46 43 -85 138 -154 42 -31 77 -63 77 -70 0 -7 -8 -20 -17 -28 -34 -29 -174 -108 -191 -108 -10 0 -51 33 -91 74 l-73 74 28 118 c29 118 58 174 90 174 8 0 19 -10 24 -22z"></path></g></svg>