<svg xmlns="http://www.w3.org/2000/svg" xmlns:xlink="http://www.w3.org/1999/xlink" id="Capa_1" x="0px" y="0px" viewBox="0 0 511.999 511.999" style="enable-background:new 0 0 511.999 511.999;" xml:space="preserve">
<g>
	<g>
		<path d="M462.348,422.764c7.138-9.614,11.367-21.509,11.367-34.375c0-31.867-25.925-57.793-57.793-57.793    s-57.793,25.925-57.793,57.793c0,12.897,4.249,24.818,11.416,34.444c-13.504,5.9-25.086,15.384-33.558,27.243    c-8.504-11.905-20.141-21.417-33.71-27.312c7.138-9.614,11.367-21.509,11.367-34.375c0-31.867-25.925-57.793-57.793-57.793    c-31.867,0-57.793,25.925-57.793,57.793c0,12.897,4.249,24.818,11.416,34.444c-13.477,5.888-25.041,15.346-33.508,27.172    c-8.499-11.872-20.118-21.358-33.66-27.242c7.138-9.614,11.367-21.509,11.367-34.375c0-31.867-25.926-57.793-57.793-57.793    s-57.793,25.925-57.793,57.793c0,12.897,4.249,24.818,11.416,34.444c-28.573,12.484-48.599,41.003-48.599,74.125v15.041h510.193    v-15.041C511.099,463.777,491.002,435.213,462.348,422.764z M95.881,360.678c15.28,0,27.711,12.43,27.711,27.711    c0,15.281-12.431,27.711-27.711,27.711s-27.711-12.43-27.711-27.711C68.17,373.108,80.602,360.678,95.881,360.678z     M33.262,481.918c6.426-20.679,25.738-35.736,48.503-35.736h28.435c22.764,0,42.077,15.057,48.503,35.736H33.262z     M255.851,360.678c15.28,0,27.711,12.43,27.711,27.711c0,15.281-12.43,27.711-27.711,27.711c-15.28,0-27.711-12.43-27.711-27.711    C228.14,373.108,240.571,360.678,255.851,360.678z M193.232,481.918c6.426-20.679,25.738-35.736,48.503-35.736h28.434    c22.764,0,42.077,15.057,48.503,35.736H193.232z M415.921,360.678c15.28,0,27.711,12.43,27.711,27.711    c0,15.281-12.43,27.711-27.711,27.711c-15.281,0-27.711-12.43-27.711-27.711C388.211,373.108,400.642,360.678,415.921,360.678z     M353.302,481.918c6.426-20.679,25.739-35.736,48.503-35.736h28.435c22.764,0,42.077,15.057,48.503,35.736H353.302z"></path>
	</g>
</g>
<g>
	<g>
		<path d="M358.554,173.162l-63.802-20.172l-38.902-54.446L216.95,152.99l-63.802,20.172l39.759,53.822l-0.529,66.912l63.474-21.181    l63.474,21.181l-0.529-66.912L358.554,173.162z M288.91,252.034l-33.059-11.032l-33.059,11.032l0.276-34.85l-20.707-28.031    l33.229-10.508l20.26-28.357l20.261,28.357l33.23,10.508l-20.707,28.031L288.91,252.034z"></path>
	</g>
</g>
<g>
	<g>
		<rect x="241.012" width="30.082" height="43.077"></rect>
	</g>
</g>
<g>
	<g>
		<rect x="422.519" y="180.966" width="43.078" height="30.082"></rect>
	</g>
</g>
<g>
	<g>
		<rect x="46.51" y="180.966" width="43.077" height="30.082"></rect>
	</g>
</g>
<g>
	<g>
		
			<rect x="373.027" y="56.016" transform="matrix(0.7071 -0.7071 0.7071 0.7071 66.3601 302.3224)" width="50.177" height="30.082"></rect>
	</g>
</g>
<g>
	<g>
		<rect x="98.74" y="45.767" transform="matrix(0.7071 -0.7071 0.7071 0.7071 -16.7768 101.2088)" width="30.082" height="50.177"></rect>
	</g>
</g>
<g>
</g>
<g>
</g>
<g>
</g>
<g>
</g>
<g>
</g>
<g>
</g>
<g>
</g>
<g>
</g>
<g>
</g>
<g>
</g>
<g>
</g>
<g>
</g>
<g>
</g>
<g>
</g>
<g>
</g>
</svg>